<?xml version="1.0" encoding="utf-8"?><svg xmlns="http://www.w3.org/2000/svg" xmlns:xlink="http://www.w3.org/1999/xlink"><symbol viewBox="0 0 31.49 31.49" id="bread-right" xmlns="http://www.w3.org/2000/svg"><path d="M21.205 5.007a1.112 1.112 0 0 0-1.587 0 1.12 1.12 0 0 0 0 1.571l8.047 8.047H1.111A1.106 1.106 0 0 0 0 15.737c0 .619.492 1.127 1.111 1.127h26.554l-8.047 8.032c-.429.444-.429 1.159 0 1.587a1.112 1.112 0 0 0 1.587 0l9.952-9.952a1.093 1.093 0 0 0 0-1.571l-9.952-9.953z"/></symbol><symbol viewBox="0 0 612 612" id="call" xmlns="http://www.w3.org/2000/svg"><path d="M257.938 336.072c0 17.355-14.068 31.424-31.423 31.424-17.354 0-31.422-14.068-31.422-31.424 0-17.354 14.068-31.423 31.422-31.423 17.355.001 31.423 14.07 31.423 31.423zm127.547-31.422c-17.354 0-31.423 14.068-31.423 31.424 0 17.354 14.069 31.422 31.423 31.422s31.424-14.068 31.424-31.422c-.001-17.355-14.069-31.424-31.424-31.424zM612 318.557v59.719c0 29.982-24.305 54.287-54.288 54.287h-39.394C479.283 540.947 379.604 606.412 306 606.412s-173.283-65.465-212.318-173.85H54.288C24.305 432.562 0 408.258 0 378.275v-59.719c0-20.631 11.511-38.573 28.46-47.758.569-84.785 25.28-151.002 73.553-196.779C149.895 28.613 218.526 5.588 306 5.588c87.474 0 156.105 23.025 203.987 68.43 48.272 45.777 72.982 111.995 73.553 196.779 16.949 9.186 28.46 27.128 28.46 47.76zm-114.901 17.714c0-13.969-.715-27.094-1.771-39.812-24.093-22.043-67.832-38.769-123.033-44.984 7.248 8.15 13.509 18.871 17.306 32.983-33.812-26.637-100.181-20.297-150.382-79.905a158.89 158.89 0 0 1-7.519-9.417c-.025-.035-.053-.062-.078-.096l.006.002c-8.931-12.078-11.976-19.262-12.146-11.31-1.473 68.513-50.034 121.925-103.958 129.46-.341 7.535-.62 15.143-.62 23.08 0 28.959 4.729 55.352 12.769 79.137 30.29 36.537 80.312 46.854 124.586 49.59 8.219-13.076 26.66-22.205 48.136-22.205 29.117 0 52.72 16.754 52.72 37.424 0 20.668-23.604 37.422-52.72 37.422-22.397 0-41.483-9.93-49.122-23.912-30.943-1.799-64.959-7.074-95.276-21.391C198.631 535.18 264.725 568.41 306 568.41c64.859 0 191.099-81.935 191.099-232.139zm53.756-72.002C547.4 116.318 462.951 38.162 306 38.162S64.601 116.318 61.145 264.269h20.887c7.637-49.867 23.778-90.878 48.285-122.412C169.37 91.609 228.478 66.13 306 66.13c77.522 0 136.63 25.479 175.685 75.727 24.505 31.533 40.647 72.545 48.284 122.412h20.886z"/></symbol><symbol viewBox="0 0 451.846 451.847" id="chevron-right" xmlns="http://www.w3.org/2000/svg"><path d="M345.441 248.292L151.154 442.573c-12.359 12.365-32.397 12.365-44.75 0-12.354-12.354-12.354-32.391 0-44.744L278.318 225.92 106.409 54.017c-12.354-12.359-12.354-32.394 0-44.748 12.354-12.359 32.391-12.359 44.75 0l194.287 194.284c6.177 6.18 9.262 14.271 9.262 22.366 0 8.099-3.091 16.196-9.267 22.373z"/></symbol><symbol viewBox="0 0 47.971 47.971" id="close" xmlns="http://www.w3.org/2000/svg"><path d="M28.228 23.986L47.092 5.122a2.998 2.998 0 0 0 0-4.242 2.998 2.998 0 0 0-4.242 0L23.986 19.744 5.121.88a2.998 2.998 0 0 0-4.242 0 2.998 2.998 0 0 0 0 4.242l18.865 18.864L.879 42.85a2.998 2.998 0 1 0 4.242 4.241l18.865-18.864L42.85 47.091c.586.586 1.354.879 2.121.879s1.535-.293 2.121-.879a2.998 2.998 0 0 0 0-4.242L28.228 23.986z"/></symbol><symbol viewBox="0 0 480 480" id="customer-service" xmlns="http://www.w3.org/2000/svg"><path d="M208 152c-13.232 0-24 10.768-24 24h16c0-4.408 3.584-8 8-8s8 3.592 8 8h16c0-13.232-10.768-24-24-24zm64 0c-13.232 0-24 10.768-24 24h16c0-4.408 3.584-8 8-8s8 3.592 8 8h16c0-13.232-10.768-24-24-24zm-32 216c-17.648 0-32 14.352-32 32s14.352 32 32 32 32-14.352 32-32-14.352-32-32-32zm0 48c-8.824 0-16-7.176-16-16s7.176-16 16-16 16 7.176 16 16-7.176 16-16 16z"/><path d="M432 464V360c0-66.168-53.832-120-120-120h-8.712a96.32 96.32 0 0 0 8.064-8H320c22.056 0 40-17.944 40-40v-14.096c9.64-6.464 16-17.456 16-29.904 0-12.496-6.408-23.504-16.096-29.96C358.84 52.784 305.512 0 240 0S121.16 52.784 120.096 118.04C110.408 124.496 104 135.504 104 148c0 19.848 16.152 36 36 36h5.448c3.744 22.168 15.072 41.744 31.272 56H168c-66.168 0-120 53.832-120 120v104H0v16h480v-16h-48zm-88-272c0 12.136-9.088 22.088-20.792 23.672A95.14 95.14 0 0 0 334.552 184H340c1.368 0 2.672-.256 4-.408V192zm16-44c0 11.024-8.968 20-20 20h-4v-40h4c11.032 0 20 8.976 20 20zm-216 20h-4c-11.032 0-20-8.976-20-20s8.968-20 20-20h4v40zm-4-56c-1.24 0-2.408.24-3.616.368C140.32 58.584 185.232 16 240 16s99.68 42.584 103.616 96.368c-1.208-.128-2.376-.368-3.616-.368h-5.448c-7.648-45.328-47.08-80-94.552-80s-86.904 34.672-94.552 80H140zm179.992 15.8C262.256 125.768 224 102.16 224 80c0-4.416-3.576-8-8-8s-8 3.584-8 8c0 19.992-20.672 36.56-47.536 39.496C164.728 79.368 198.768 48 240 48c44.04 0 79.88 35.784 79.992 79.8zM160 168v-32.448c24.984-2.168 46.184-14.216 56.768-31.088C233.504 126.64 272.616 142.248 320 143.84V168c0 18.024-6.064 34.608-16.152 48H240v16h47.792a79.77 79.77 0 0 1-14.824 8.8c-20.992 9.536-44.952 9.536-65.952 0C179.336 228.208 160 200.352 160 168zm55.272 92.656C223.176 262.768 231.44 264 240 264s16.824-1.232 24.728-3.344L240 310.112l-24.728-49.456zM227.056 320h-14.112l-32-64h14.112l32 64zm57.888-64h14.112l-32 64h-14.112l32-64zM88 360v104H64V360c0-55.72 44.08-101.208 99.176-103.752L195.056 320H128c-22.056 0-40 17.944-40 40zm288 104H104V360c0-13.232 10.768-24 24-24h224c13.232 0 24 10.768 24 24v104zm40 0h-24V360c0-22.056-17.944-40-40-40h-67.056l31.88-63.752C371.92 258.792 416 304.28 416 360v104z"/><path d="M344 392h16v56h-16zm0-32h16v16h-16zm72-288h16v16h-16zm0 32h16v16h-16zm0 32h16v16h-16zM48 168h16v16H48zm0 32h16v16H48zm0 32h16v16H48z"/></symbol><symbol viewBox="0 0 489 489" id="delivery" xmlns="http://www.w3.org/2000/svg"><path d="M440.1 422.7l-28-315.3c-.6-7-6.5-12.3-13.4-12.3h-57.6C340.3 42.5 297.3 0 244.5 0s-95.8 42.5-96.6 95.1H90.3c-7 0-12.8 5.3-13.4 12.3l-28 315.3c0 .4-.1.8-.1 1.2 0 35.9 32.9 65.1 73.4 65.1h244.6c40.5 0 73.4-29.2 73.4-65.1 0-.4 0-.8-.1-1.2zM244.5 27c37.9 0 68.8 30.4 69.6 68.1H174.9c.8-37.7 31.7-68.1 69.6-68.1zm122.3 435H122.2c-25.4 0-46-16.8-46.4-37.5l26.8-302.3h45.2v41c0 7.5 6 13.5 13.5 13.5s13.5-6 13.5-13.5v-41h139.3v41c0 7.5 6 13.5 13.5 13.5s13.5-6 13.5-13.5v-41h45.2l26.9 302.3c-.4 20.7-21.1 37.5-46.4 37.5z"/></symbol><symbol viewBox="0 0 60 60" id="dots" xmlns="http://www.w3.org/2000/svg"><path d="M8 22c-4.411 0-8 3.589-8 8s3.589 8 8 8 8-3.589 8-8-3.589-8-8-8zm44 0c-4.411 0-8 3.589-8 8s3.589 8 8 8 8-3.589 8-8-3.589-8-8-8zm-22 0c-4.411 0-8 3.589-8 8s3.589 8 8 8 8-3.589 8-8-3.589-8-8-8z"/></symbol><symbol viewBox="0 0 255 255" id="drop-down-arrow" xmlns="http://www.w3.org/2000/svg"><path d="M0 63.75l127.5 127.5L255 63.75z"/></symbol><symbol viewBox="0 0 306 306" id="expand-button" xmlns="http://www.w3.org/2000/svg"><path d="M270.3 58.65L153 175.95 35.7 58.65 0 94.35l153 153 153-153z"/></symbol><symbol viewBox="0 0 30 30" id="facebook" xmlns="http://www.w3.org/2000/svg"><g fill-rule="evenodd"><rect width="30" height="30" rx="4"/><path d="M17.887 14.986h-2.051V22.5h-3.108v-7.514H11.25v-2.641h1.478v-1.71c0-1.221.58-3.135 3.135-3.135l2.302.01v2.563h-1.67c-.274 0-.66.137-.66.72v1.554h2.323l-.271 2.639z" fill-rule="nonzero"/></g></symbol><symbol viewBox="0 0 512 512" id="fast-delivery" xmlns="http://www.w3.org/2000/svg"><path d="M476.158 231.363l-13.259-53.035c3.625-.77 6.345-3.986 6.345-7.839v-8.551c0-18.566-15.105-33.67-33.67-33.67h-60.392V110.63c0-9.136-7.432-16.568-16.568-16.568H50.772c-9.136 0-16.568 7.432-16.568 16.568V256a8.017 8.017 0 0 0 16.034 0V110.63c0-.295.239-.534.534-.534h307.841c.295 0 .534.239.534.534v145.372a8.017 8.017 0 0 0 16.034 0v-9.088h94.569l.021.002.022-.001c11.637.008 21.518 7.646 24.912 18.171h-24.928a8.017 8.017 0 0 0-8.017 8.017v17.102c0 13.851 11.268 25.119 25.119 25.119h9.086v35.273h-20.962c-6.886-19.883-25.787-34.205-47.982-34.205s-41.097 14.322-47.982 34.205h-3.86v-60.393a8.017 8.017 0 0 0-16.034 0v60.391H192.817c-6.886-19.883-25.787-34.205-47.982-34.205s-41.097 14.322-47.982 34.205H50.772a.534.534 0 0 1-.534-.534v-17.637h34.739a8.017 8.017 0 0 0 0-16.034H8.017a8.017 8.017 0 0 0 0 16.034h26.188v17.637c0 9.136 7.432 16.568 16.568 16.568h43.304c-.002.178-.014.355-.014.534 0 27.996 22.777 50.772 50.772 50.772s50.772-22.776 50.772-50.772c0-.18-.012-.356-.014-.534h180.67c-.002.178-.014.355-.014.534 0 27.996 22.777 50.772 50.772 50.772 27.995 0 50.772-22.776 50.772-50.772 0-.18-.012-.356-.014-.534h26.203a8.017 8.017 0 0 0 8.017-8.017v-85.511c.001-21.112-15.576-38.653-35.841-41.738zm-100.976-87.062h60.392c9.725 0 17.637 7.912 17.637 17.637v.534h-78.029v-18.171zm0 86.58v-52.376h71.235l13.094 52.376h-84.329zM144.835 401.904c-19.155 0-34.739-15.583-34.739-34.739s15.584-34.739 34.739-34.739c19.155 0 34.739 15.583 34.739 34.739s-15.584 34.739-34.739 34.739zm282.188 0c-19.155 0-34.739-15.583-34.739-34.739s15.584-34.739 34.739-34.739c19.155 0 34.739 15.583 34.739 34.739s-15.584 34.739-34.739 34.739zm68.944-102.614h-9.086c-5.01 0-9.086-4.076-9.086-9.086v-9.086h18.171v18.172z"/><path d="M144.835 350.597c-9.136 0-16.568 7.432-16.568 16.568 0 9.136 7.432 16.568 16.568 16.568 9.136 0 16.568-7.432 16.568-16.568 0-9.136-7.432-16.568-16.568-16.568zm282.188 0c-9.136 0-16.568 7.432-16.568 16.568 0 9.136 7.432 16.568 16.568 16.568 9.136 0 16.568-7.432 16.568-16.568 0-9.136-7.432-16.568-16.568-16.568zm-94.063-34.204H213.244a8.017 8.017 0 0 0 0 16.034H332.96a8.017 8.017 0 0 0 0-16.034zm-205.227-34.205H25.119a8.017 8.017 0 0 0 0 16.034h102.614a8.017 8.017 0 0 0 0-16.034zM278.771 173.37a8.017 8.017 0 0 0-11.337.001l-71.292 71.291-37.087-37.087a8.016 8.016 0 0 0-11.337 0 8.016 8.016 0 0 0 0 11.337l42.756 42.756c1.565 1.566 3.617 2.348 5.668 2.348s4.104-.782 5.668-2.348l76.96-76.96a8.018 8.018 0 0 0 .001-11.338z"/></symbol><symbol viewBox="0 0 30 30" id="instagram" xmlns="http://www.w3.org/2000/svg"><g fill-rule="evenodd"><rect width="30" height="30" rx="4"/><path d="M19.126 5.625H10.77a5.152 5.152 0 0 0-5.146 5.146v8.355a5.152 5.152 0 0 0 5.146 5.146h8.355a5.152 5.152 0 0 0 5.146-5.146V10.77a5.152 5.152 0 0 0-5.146-5.146zm3.491 13.5a3.495 3.495 0 0 1-3.491 3.492H10.77a3.495 3.495 0 0 1-3.492-3.491V10.77a3.495 3.495 0 0 1 3.492-3.492h8.355a3.495 3.495 0 0 1 3.491 3.492v8.355z" fill-rule="nonzero"/><path d="M14.948 10.144a4.81 4.81 0 0 0-4.804 4.804 4.81 4.81 0 0 0 4.804 4.805 4.81 4.81 0 0 0 4.805-4.805 4.81 4.81 0 0 0-4.805-4.804zm0 7.954a3.154 3.154 0 0 1-3.15-3.15 3.154 3.154 0 0 1 3.15-3.15 3.154 3.154 0 0 1 3.15 3.15 3.154 3.154 0 0 1-3.15 3.15zm5.007-9.358a1.218 1.218 0 0 0-1.214 1.214 1.22 1.22 0 0 0 1.214 1.213c.32 0 .632-.13.858-.355a1.218 1.218 0 0 0 0-1.716 1.218 1.218 0 0 0-.858-.355z" fill-rule="nonzero"/></g></symbol><symbol viewBox="0 0 477.175 477.175" id="left-arrow" xmlns="http://www.w3.org/2000/svg"><path d="M145.188 238.575l215.5-215.5c5.3-5.3 5.3-13.8 0-19.1s-13.8-5.3-19.1 0l-225.1 225.1c-5.3 5.3-5.3 13.8 0 19.1l225.1 225c2.6 2.6 6.1 4 9.5 4s6.9-1.3 9.5-4c5.3-5.3 5.3-13.8 0-19.1l-215.4-215.5z"/></symbol><symbol viewBox="0 0 512 512" id="location" xmlns="http://www.w3.org/2000/svg"><path d="M256 0C156.748 0 76 80.748 76 180c0 33.534 9.289 66.26 26.869 94.652l142.885 230.257A15 15 0 0 0 258.499 512h.119a14.997 14.997 0 0 0 12.75-7.292L410.611 272.22C427.221 244.428 436 212.539 436 180 436 80.748 355.252 0 256 0zm128.866 256.818L258.272 468.186l-129.905-209.34C113.734 235.214 105.8 207.95 105.8 180c0-82.71 67.49-150.2 150.2-150.2S406.1 97.29 406.1 180c0 27.121-7.411 53.688-21.234 76.818z"/><path d="M256 90c-49.626 0-90 40.374-90 90 0 49.309 39.717 90 90 90 50.903 0 90-41.233 90-90 0-49.626-40.374-90-90-90zm0 150.2c-33.257 0-60.2-27.033-60.2-60.2 0-33.084 27.116-60.2 60.2-60.2s60.1 27.116 60.1 60.2c0 32.683-26.316 60.2-60.1 60.2z"/></symbol><symbol viewBox="0 0 54 54" id="map" xmlns="http://www.w3.org/2000/svg"><path d="M53.516 1.143a.999.999 0 0 0-.983-.027L36 9.869 19.468 1.116c-.013-.007-.028-.009-.041-.015a1.004 1.004 0 0 0-.147-.055c-.028-.008-.055-.017-.083-.023a1.04 1.04 0 0 0-.168-.017c-.025-.001-.05-.004-.076-.003a.968.968 0 0 0-.16.025c-.03.006-.06.01-.089.019l-.02.004-18 6A1 1 0 0 0 0 8v43a1 1 0 0 0 1.316.948l17.646-5.882 16.657 6.859c.014.006.03.004.044.009.11.039.222.066.337.066a1 1 0 0 0 .266-.039c.028-.008.054-.021.082-.031.04-.015.082-.026.12-.046l17-9c.327-.173.532-.514.532-.884V2c0-.351-.184-.676-.484-.857zM2 8.721l16-5.333V30.38c-.43.078-.854.166-1.264.274a1 1 0 1 0 .513 1.934c.24-.064.502-.096.751-.148v11.84L2 49.612V8.721zM20 32.16c.321-.025.632-.066.961-.073a1.001 1.001 0 0 0-.021-2h-.022c-.31.007-.615.024-.918.045V3.661l15 7.941v21.194a14.952 14.952 0 0 1-2.201-.262 1 1 0 0 0-.38 1.963 16.99 16.99 0 0 0 2.582.289v15.721L20 44.33V32.16zm32 10.237l-15 7.941v-15.66a.993.993 0 0 0 .587-.98.994.994 0 0 0-.587-.821V11.602l15-7.941v38.736z"/><path d="M11 9c-2.757 0-5 2.243-5 5a5.009 5.009 0 0 0 4 4.899V21a1 1 0 1 0 2 0v-2.101A5.009 5.009 0 0 0 16 14c0-2.757-2.243-5-5-5zm0 8c-1.654 0-3-1.346-3-3s1.346-3 3-3 3 1.346 3 3-1.346 3-3 3zm34.07 10.673a1 1 0 0 0 1.296-.568c.47-1.199.847-2.553 1.123-4.024a1 1 0 0 0-.799-1.167 1.008 1.008 0 0 0-1.167.8c-.252 1.348-.595 2.58-1.019 3.663a1.001 1.001 0 0 0 .566 1.296zm-32.265 4.669a13.87 13.87 0 0 0-3.235 2.82 1 1 0 0 0 1.529 1.289 11.833 11.833 0 0 1 2.768-2.414 1.001 1.001 0 0 0-1.062-1.695zm-4.178 5.934a1 1 0 0 0-1.327.489c-1.026 2.226-1.28 4.023-1.291 4.099a.998.998 0 0 0 .992 1.135c.491 0 .919-.362.99-.861.002-.016.231-1.597 1.125-3.534a1.002 1.002 0 0 0-.489-1.328zm31.796-4.547a.998.998 0 0 0 .454-.109 10.419 10.419 0 0 0 3.384-2.786 1 1 0 1 0-1.56-1.252 8.414 8.414 0 0 1-2.735 2.257 1 1 0 0 0 .457 1.89zM29.17 31.432a12.399 12.399 0 0 1-.716-.322.996.996 0 0 0-.205-.078 32.59 32.59 0 0 0-3.173-.654.999.999 0 1 0-.302 1.977c.926.142 1.893.34 2.877.59.134.064.39.185.748.334a.999.999 0 0 0 1.308-.537 1 1 0 0 0-.537-1.31zm17.753-11.501l.065.002a1 1 0 0 0 .997-.937c.062-.961.093-1.978.093-3.02 0-.347-.003-.699-.01-1.058-.01-.553-.49-.973-1.018-.982a1 1 0 0 0-.982 1.018c.006.347.01.688.01 1.022 0 1-.03 1.973-.089 2.893a1 1 0 0 0 .934 1.062zm-38.63 8.776a.997.997 0 0 0 1.414 0L11 27.414l1.293 1.293a.997.997 0 0 0 1.414 0 .999.999 0 0 0 0-1.414L12.414 26l1.293-1.293a.999.999 0 1 0-1.414-1.414L11 24.586l-1.293-1.293a.999.999 0 1 0-1.414 1.414L9.586 26l-1.293 1.293a.999.999 0 0 0 0 1.414z"/></symbol><symbol viewBox="0 0 511.999 511.999" id="medal" xmlns="http://www.w3.org/2000/svg"><path d="M321.356 63.796c-56.318-28.458-124.159-17.577-168.81 27.075-51.895 51.894-57.089 134.64-12.081 192.474a8.055 8.055 0 0 0 6.373 3.114 8.03 8.03 0 0 0 4.95-1.702 8.07 8.07 0 0 0 1.413-11.323c-40.019-51.422-35.394-125.002 10.757-171.153 39.71-39.712 100.038-49.39 150.122-24.083 3.976 2.012 8.83.414 10.84-3.563a8.067 8.067 0 0 0-3.564-10.839zm64.431 64.443a8.07 8.07 0 1 0-14.406 7.275c25.289 50.076 15.606 110.396-24.095 150.096-46.152 46.15-119.731 50.774-171.153 10.757a8.068 8.068 0 0 0-9.91 12.735c26.344 20.502 57.855 30.586 89.266 30.586 37.547 0 74.952-14.411 103.209-42.668 44.641-44.64 55.527-112.468 27.089-168.781zM364.94 97.508a147.944 147.944 0 0 0-12.88-12.88 8.066 8.066 0 0 0-11.388.703 8.065 8.065 0 0 0 .7 11.388 132.458 132.458 0 0 1 11.476 11.475 8.048 8.048 0 0 0 6.049 2.725 8.04 8.04 0 0 0 5.34-2.023 8.066 8.066 0 0 0 .703-11.388z"/><path d="M446.066 208.41c5.38-8.827 5.38-19.791-.002-28.616l-10.615-17.407a11.358 11.358 0 0 1-1.521-7.67l3.164-20.103c1.613-10.245-2.596-20.398-10.982-26.499l-16.451-11.966a11.36 11.36 0 0 1-4.354-6.506l-4.791-19.799c-2.432-10.057-10.191-17.815-20.247-20.249l-19.8-4.792a11.355 11.355 0 0 1-6.506-4.354l-11.968-16.455c-6.1-8.386-16.254-12.597-26.496-10.983l-20.11 3.164a11.359 11.359 0 0 1-7.669-1.521l-17.41-10.618c-8.826-5.382-19.79-5.381-28.616 0l-17.408 10.615a11.358 11.358 0 0 1-7.67 1.521l-20.104-3.164c-10.242-1.612-20.397 2.597-26.497 10.983l-11.966 16.451a11.362 11.362 0 0 1-6.508 4.354l-19.799 4.791c-10.055 2.432-17.815 10.191-20.249 20.247l-4.792 19.8a11.35 11.35 0 0 1-4.354 6.506L85.89 108.108c-8.386 6.099-12.594 16.251-10.983 26.496l3.164 20.111a11.358 11.358 0 0 1-1.521 7.669l-10.617 17.411c-5.38 8.826-5.38 19.79.001 28.615l10.615 17.408a11.358 11.358 0 0 1 1.521 7.67l-3.164 20.104c-1.613 10.244 2.596 20.398 10.982 26.498l16.451 11.966a11.355 11.355 0 0 1 4.354 6.506l4.791 19.799c2.432 10.057 10.191 17.815 20.247 20.249l8.268 2.001-55.954 124.814a8.067 8.067 0 0 0 8.32 11.312l45.022-5.383 25.936 37.191a8.07 8.07 0 0 0 13.981-1.314l57.145-127.479 7.241 4.415a27.444 27.444 0 0 0 14.308 4.036c4.948 0 9.895-1.346 14.308-4.036l7.502-4.574 57.217 127.638a8.067 8.067 0 0 0 7.365 4.768 8.069 8.069 0 0 0 6.616-3.453l25.936-37.191 45.022 5.383a8.067 8.067 0 1 0 8.32-11.312l-55.983-124.883 7.957-1.925c10.055-2.432 17.815-10.191 20.249-20.247l4.792-19.8a11.355 11.355 0 0 1 4.354-6.506l16.455-11.968c8.386-6.099 12.594-16.251 10.983-26.496l-3.164-20.111a11.358 11.358 0 0 1 1.521-7.669l10.618-17.411zM168.408 487.627l-20.554-29.474a8.064 8.064 0 0 0-7.576-3.396l-35.679 4.266L155.578 345.3a11.284 11.284 0 0 1 2.457 2.455l11.968 16.455a27.734 27.734 0 0 0 3.808 4.242l-26.833 59.857a8.07 8.07 0 0 0 14.724 6.601l26.738-59.644c2.631.361 5.34.355 8.059-.073l20.11-3.164a11.327 11.327 0 0 1 3.606.024l-51.807 115.574zm239.324-28.606l-35.68-4.264a8.064 8.064 0 0 0-7.576 3.396l-20.554 29.474-51.829-115.619a11.359 11.359 0 0 1 3.293.024l20.103 3.164c2.829.445 5.648.431 8.379.024l26.758 59.692a8.07 8.07 0 0 0 7.367 4.77 8.068 8.068 0 0 0 7.357-11.371l-26.935-60.085a27.771 27.771 0 0 0 3.571-4.013l11.966-16.451a11.327 11.327 0 0 1 2.716-2.645l51.064 113.904zm24.555-259.013l-10.617 17.411a27.52 27.52 0 0 0-3.684 18.578l3.164 20.11a11.3 11.3 0 0 1-4.534 10.938l-16.456 11.969a27.514 27.514 0 0 0-10.545 15.76l-4.792 19.8a11.303 11.303 0 0 1-8.359 8.359l-19.8 4.791a27.512 27.512 0 0 0-15.762 10.546l-11.966 16.451a11.293 11.293 0 0 1-10.939 4.533l-20.104-3.164a27.517 27.517 0 0 0-18.581 3.684l-17.407 10.615a11.307 11.307 0 0 1-11.812 0l-17.411-10.616a27.51 27.51 0 0 0-18.579-3.684l-20.111 3.164a11.297 11.297 0 0 1-10.938-4.534l-11.969-16.455a27.514 27.514 0 0 0-15.76-10.545l-19.8-4.792a11.303 11.303 0 0 1-8.359-8.359l-4.791-19.799a27.51 27.51 0 0 0-10.546-15.763l-16.45-11.967a11.297 11.297 0 0 1-4.533-10.939l3.164-20.104a27.515 27.515 0 0 0-3.684-18.58l-10.615-17.409a11.303 11.303 0 0 1 0-11.812l10.617-17.411a27.515 27.515 0 0 0 3.684-18.578l-3.164-20.11a11.3 11.3 0 0 1 4.534-10.938l16.456-11.969a27.514 27.514 0 0 0 10.545-15.76l4.792-19.8a11.303 11.303 0 0 1 8.359-8.359l19.8-4.791a27.507 27.507 0 0 0 15.761-10.546l11.966-16.451A11.294 11.294 0 0 1 194 28.948l20.104 3.164a27.504 27.504 0 0 0 18.581-3.684l17.407-10.615a11.307 11.307 0 0 1 11.812 0l17.411 10.616a27.502 27.502 0 0 0 18.579 3.685l20.111-3.164a11.305 11.305 0 0 1 10.938 4.534l11.969 16.455a27.514 27.514 0 0 0 15.76 10.545l19.8 4.792a11.303 11.303 0 0 1 8.359 8.359l4.791 19.799a27.51 27.51 0 0 0 10.546 15.763l16.451 11.966a11.297 11.297 0 0 1 4.533 10.939l-3.164 20.104a27.515 27.515 0 0 0 3.684 18.58l10.615 17.409a11.3 11.3 0 0 1 0 11.813z"/><path d="M350.416 168.997c-1.778-5.474-6.433-9.296-12.149-9.974l-48.551-5.757-20.478-44.395c-2.411-5.226-7.484-8.473-13.24-8.473-5.755 0-10.829 3.247-13.24 8.473l-20.478 44.396-48.551 5.757c-5.716.678-10.372 4.5-12.149 9.974-1.778 5.471-.258 11.3 3.966 15.207l35.895 33.195-9.528 47.954c-1.121 5.646 1.075 11.254 5.732 14.636 2.569 1.866 5.55 2.811 8.55 2.811 2.439 0 4.889-.624 7.14-1.884l42.662-23.879 42.662 23.879c5.023 2.812 11.034 2.457 15.691-.926s6.853-8.992 5.731-14.637l-9.528-47.953 35.895-33.195c4.226-3.907 5.746-9.735 3.968-15.209zm-54.134 39.623a8.07 8.07 0 0 0-2.436 7.496l9.75 49.071-43.658-24.437a8.065 8.065 0 0 0-7.882 0l-43.658 24.437 9.75-49.071a8.063 8.063 0 0 0-2.436-7.496l-36.732-33.97 49.686-5.891a8.071 8.071 0 0 0 6.377-4.632l20.955-45.431 20.955 45.431a8.07 8.07 0 0 0 6.377 4.632l49.684 5.891-36.732 33.97z"/></symbol><symbol viewBox="0 0 30 30" id="ok" xmlns="http://www.w3.org/2000/svg"><g fill-rule="evenodd"><rect width="30" height="30" rx="4"/><path d="M16.802 18.545a8.346 8.346 0 0 0 2.588-1.072 1.306 1.306 0 0 0-1.39-2.21 5.66 5.66 0 0 1-6 0 1.303 1.303 0 0 0-1.799.41c-.384.61-.2 1.416.408 1.8.797.5 1.671.862 2.588 1.072l-2.492 2.49a1.305 1.305 0 1 0 1.848 1.846l2.446-2.447 2.45 2.448c.508.51 1.333.51 1.842.001l.002-.001c.51-.508.511-1.334.003-1.842l-.003-.004-2.49-2.491M15 14.91a4.46 4.46 0 0 0 4.456-4.454A4.46 4.46 0 0 0 15 6a4.46 4.46 0 0 0-4.456 4.456A4.46 4.46 0 0 0 15 14.91m0-6.3c1.017 0 1.845.829 1.845 1.846A1.847 1.847 0 0 1 15 12.3a1.847 1.847 0 0 1-1.845-1.844c0-1.017.828-1.845 1.845-1.845"/></g></symbol><symbol viewBox="0 0 331.493 331.493" id="payment" xmlns="http://www.w3.org/2000/svg"><path d="M298.761 57.093l-101.2-54.8c-9.6-5.2-22.8-1.2-28 8.4l-59.2 110h-72c-9.2 0-16.4 7.2-16.4 16.4v178c0 9.2 7.2 16.4 16.4 16.4h230c9.2 0 16.4-7.2 16.4-16.4v-41.6h6.8c3.6 0 6.4-2.8 6.4-6.4v-47.6c0-3.6-2.8-6.4-6.4-6.4h-6.8v-46.8c0-7.6-5.6-14.4-12.8-16l35.2-65.2c5.2-10 1.6-22.4-8.4-28zm-72-24.4l-63.2 117.2h-18l67.6-124.4 13.6 7.2zm-45.6-16c2-3.6 6.8-5.2 10.4-3.2l10 5.6-70.4 130.8h-22l72-133.2zm-146.8 120c0-1.2 1.6-3.2 3.6-3.2h65.2l-8.8 16h-56.4c-1.2 0-2.4 0-3.6.4v-13.2zm237.2 178.4c0 2-1.6 3.6-3.6 3.6h-230c-2 0-3.6-1.6-3.6-3.6v-148.8c0-2 1.6-3.6 3.6-3.6h229.6c2 0 3.6 1.6 3.6 3.6v46.8h-24.4c-10.8 0-19.2 8.8-19.2 19.2v22c0 10.8 8.8 19.2 19.2 19.2h24.8v41.6zm12.8-89.2h.4v34.8h-38c-3.6 0-6.4-2.8-6.4-6.4v-22c0-3.6 2.8-6.4 6.4-6.4h37.6zm11.2-147.2l-38.4 71.2h-79.2l60-110.8 54.4 29.6c4 1.6 5.2 6.4 3.2 10z"/><path d="M271.161 72.693l-3.2-1.6c-8-4.4-18.8-1.2-23.2 6.8l-4 7.6c-2 4-2.8 8.8-1.2 13.2 1.2 4.4 4.4 8 8.4 10l3.2 1.6c2.4 1.2 5.2 2 8 2 6.4 0 12-3.6 15.2-8.8l4-7.6c4-8.4.8-18.8-7.2-23.2zm-4.4 17.2l-4 7.6c-1.2 2-4 2.8-6 1.6l-3.2-2c-.8-.4-1.6-1.6-2-2.4-.4-1.2-.4-2.4.4-3.2l4-7.6c.8-1.2 2.4-2.4 4-2.4.8 0 1.2 0 2 .4l3.2 1.6c1.6 1.6 2.4 4 1.6 6.4z"/></symbol><symbol viewBox="0 0 512 512" id="recommended" xmlns="http://www.w3.org/2000/svg"><path d="M392.327 226.071c0-16.209-13.186-29.394-29.395-29.394H308.91c13.125-14.753 21.703-31.552 23.36-46.623 1.012-9.205-1.832-18.342-7.805-25.069-5.459-6.149-12.924-9.576-21.02-9.651l-.281-.001c-7.831 0-15.181 3.016-20.728 8.512-5.548 5.497-8.618 12.82-8.654 20.635-.285 1.711-3.295 7.61-10.66 14.614-6.03 5.736-16.446 13.621-31.825 18.614-6.03 1.958-11.541 5.563-16.379 10.715a105.986 105.986 0 0 1-11.048 10.18 16.454 16.454 0 0 0-7.728-1.924h-51.307c-9.136 0-16.568 7.432-16.568 16.568v136.818c0 9.136 7.432 16.568 16.568 16.568h51.307c6.228 0 11.659-3.458 14.489-8.551h130.923c13.851 0 25.119-11.268 25.119-25.119 0-4.657-1.273-9.021-3.491-12.765 7.217-4.418 12.042-12.376 12.042-21.44 0-4.657-1.273-9.021-3.491-12.765 7.217-4.418 12.042-12.376 12.042-21.44a24.982 24.982 0 0 0-4.371-14.146c7.793-5.293 12.923-14.227 12.923-24.336zm-29.395 13.361h-4.276a8.017 8.017 0 0 0 0 16.034c5.01 0 9.086 4.076 9.086 9.086s-4.076 9.086-9.086 9.086h-8.551a8.017 8.017 0 0 0 0 16.034c5.01 0 9.086 4.076 9.086 9.086 0 5.01-4.076 9.086-9.086 9.086h-8.551a8.017 8.017 0 0 0 0 16.034c5.01 0 9.086 4.076 9.086 9.086 0 5.01-4.076 9.086-9.086 9.086H212.71v-77.495a8.017 8.017 0 0 0-16.034 0v85.511a.534.534 0 0 1-.534.534h-51.307a.534.534 0 0 1-.534-.534V213.244c0-.295.239-.534.534-.534h51.307c.295 0 .534.239.534.534v17.103a8.017 8.017 0 0 0 16.034 0v-17.103c0-.389-.032-.77-.059-1.152a121.724 121.724 0 0 0 13.954-12.695c2.967-3.161 6.211-5.327 9.642-6.44 18.87-6.126 31.569-15.99 38.898-23.186 9.186-9.019 14.669-18.421 14.669-25.152 0-3.556 1.387-6.889 3.906-9.385 2.55-2.527 5.927-3.862 9.576-3.867 4.494.042 7.47 2.341 9.177 4.263 2.926 3.295 4.366 8.033 3.857 12.672-1.751 15.929-14.49 35.619-32.454 50.161a8.018 8.018 0 0 0 5.044 14.247h74.01c7.368 0 13.361 5.993 13.361 13.361s-5.992 13.361-13.359 13.361z"/><path d="M170.489 316.306c-4.427 0-8.059 3.632-8.059 8.059s3.632 8.059 8.059 8.059 8.059-3.632 8.059-8.059c.001-4.426-3.631-8.059-8.059-8.059z"/><path d="M497.71 256l13.772-36.443a8.014 8.014 0 0 0-1.243-7.847l-24.359-30.404 1.836-38.915a8.017 8.017 0 0 0-3.606-7.078l-32.562-21.389-10.278-37.578a8.016 8.016 0 0 0-5.617-5.617l-37.578-10.278-21.389-32.561a8.027 8.027 0 0 0-7.078-3.606l-38.915 1.836-30.404-24.359a8.018 8.018 0 0 0-7.847-1.243L255.999 14.29 219.558.519a8.012 8.012 0 0 0-7.847 1.243l-30.404 24.359-38.915-1.836a8.001 8.001 0 0 0-7.078 3.606l-21.388 32.562-37.578 10.278a8.016 8.016 0 0 0-5.617 5.617l-10.278 37.578-32.562 21.388a8.016 8.016 0 0 0-3.606 7.078l1.836 38.915-24.359 30.404a8.018 8.018 0 0 0-1.243 7.847L14.29 256 .518 292.442a8.014 8.014 0 0 0 1.243 7.847l24.359 30.404-1.836 38.915a8.017 8.017 0 0 0 3.606 7.078l32.562 21.389 10.278 37.578a8.016 8.016 0 0 0 5.617 5.617l37.578 10.278 21.388 32.562a8.041 8.041 0 0 0 7.078 3.606l38.915-1.836 30.404 24.359a8.013 8.013 0 0 0 7.847 1.243L256 497.71l36.443 13.772a8.02 8.02 0 0 0 7.846-1.243l30.404-24.359 38.915 1.836a8.025 8.025 0 0 0 7.078-3.606l21.389-32.562 37.578-10.278a8.016 8.016 0 0 0 5.617-5.617l10.278-37.578 32.562-21.389a8.016 8.016 0 0 0 3.606-7.078l-1.836-38.915 24.359-30.404a8.018 8.018 0 0 0 1.243-7.847L497.71 256zm-16.069 2.834l13.226 34.999-23.394 29.199a8.014 8.014 0 0 0-1.752 5.39l1.764 37.373-31.271 20.541a8.017 8.017 0 0 0-3.332 4.586l-9.871 36.089-36.089 9.871a8.022 8.022 0 0 0-4.586 3.332l-20.541 31.271-37.373-1.764a8.023 8.023 0 0 0-5.39 1.752l-29.199 23.394-34.999-13.226a8.018 8.018 0 0 0-5.668 0l-34.999 13.226-29.199-23.394a8.03 8.03 0 0 0-5.39-1.752l-37.373 1.764-20.541-31.271a8.017 8.017 0 0 0-4.586-3.332l-36.089-9.871-9.871-36.089a8.022 8.022 0 0 0-3.332-4.586l-31.271-20.541 1.764-37.373a8.012 8.012 0 0 0-1.752-5.39l-23.394-29.199 13.227-34.999a8.019 8.019 0 0 0 0-5.668l-13.227-34.999 23.394-29.199a8.014 8.014 0 0 0 1.752-5.39l-1.764-37.373 31.271-20.541a8.017 8.017 0 0 0 3.332-4.586l9.871-36.089 36.089-9.871a8.022 8.022 0 0 0 4.586-3.332l20.541-31.271 37.373 1.764a8.022 8.022 0 0 0 5.39-1.752l29.199-23.394 34.999 13.227c1.827.69 3.842.69 5.668 0l34.999-13.227 29.199 23.394a8.01 8.01 0 0 0 5.39 1.752l37.373-1.764 20.541 31.271a8.017 8.017 0 0 0 4.586 3.332l36.089 9.871 9.871 36.089a8.022 8.022 0 0 0 3.332 4.586l31.271 20.541-1.764 37.373a8.012 8.012 0 0 0 1.752 5.39l23.394 29.199-13.227 34.999a8.024 8.024 0 0 0 .001 5.668z"/><path d="M406.634 117.574a209.24 209.24 0 0 0-12.573-12.573 8.017 8.017 0 0 0-11.327.484 8.016 8.016 0 0 0 .484 11.327c2.003 1.84 3.997 3.75 5.925 5.678a194.67 194.67 0 0 1 5.679 5.926 7.996 7.996 0 0 0 5.908 2.595c1.937 0 3.88-.698 5.419-2.111a8.015 8.015 0 0 0 .485-11.326zm-41.042-34.449c-38.66-24.63-85.206-35.576-131.059-30.829-46.525 4.82-90.395 25.722-123.531 58.857-36.467 36.467-57.699 84.911-59.785 136.408-2.073 51.194 14.883 100.898 47.746 139.954a7.998 7.998 0 0 0 6.139 2.855 8.017 8.017 0 0 0 6.13-13.177c-30.281-35.989-45.905-81.795-43.995-128.982 1.922-47.462 21.49-92.11 55.101-125.72 30.54-30.541 70.972-49.806 113.846-54.247 42.275-4.38 85.171 5.709 120.792 28.403a8.016 8.016 0 0 0 11.068-2.453 8.017 8.017 0 0 0-2.452-11.069zm62.919 62.918a8.017 8.017 0 1 0-13.522 8.614c22.694 35.622 32.781 78.52 28.403 120.792-4.441 42.874-23.706 83.305-54.246 113.847-33.611 33.61-78.259 53.179-125.72 55.101-47.179 1.918-92.994-13.713-128.982-43.993a8.016 8.016 0 0 0-11.295.973 8.016 8.016 0 0 0 .973 11.295c36.921 31.065 83.351 47.917 131.566 47.916 2.789 0 5.589-.057 8.389-.17 51.497-2.085 99.94-23.317 136.408-59.784 33.136-33.136 54.039-77.007 58.857-123.532 4.748-45.856-6.201-92.4-30.831-131.059z"/></symbol><symbol viewBox="0 0 129 129" id="right-arrow" xmlns="http://www.w3.org/2000/svg"><path d="M40.4 121.3c-.8.8-1.8 1.2-2.9 1.2s-2.1-.4-2.9-1.2c-1.6-1.6-1.6-4.2 0-5.8l51-51-51-51c-1.6-1.6-1.6-4.2 0-5.8 1.6-1.6 4.2-1.6 5.8 0l53.9 53.9c1.6 1.6 1.6 4.2 0 5.8l-53.9 53.9z"/></symbol><symbol viewBox="0 0 512 512" id="search" xmlns="http://www.w3.org/2000/svg"><path d="M495 466.2L377.2 348.4c29.2-35.6 46.8-81.2 46.8-130.9C424 103.5 331.5 11 217.5 11 103.4 11 11 103.5 11 217.5S103.4 424 217.5 424c49.7 0 95.2-17.5 130.8-46.7L466.1 495c8 8 20.9 8 28.9 0 8-7.9 8-20.9 0-28.8zm-277.5-83.3C126.2 382.9 52 308.7 52 217.5S126.2 52 217.5 52C308.7 52 383 126.3 383 217.5s-74.3 165.4-165.5 165.4z"/></symbol><symbol viewBox="0 0 510 510" id="shopping-cart" xmlns="http://www.w3.org/2000/svg"><path d="M153 408c-28.05 0-51 22.95-51 51s22.95 51 51 51 51-22.95 51-51-22.95-51-51-51zM0 0v51h51l91.8 193.8-35.7 61.2c-2.55 7.65-5.1 17.85-5.1 25.5 0 28.05 22.95 51 51 51h306v-51H163.2c-2.55 0-5.1-2.55-5.1-5.1v-2.551l22.95-43.35h188.7c20.4 0 35.7-10.2 43.35-25.5L504.9 89.25c5.1-5.1 5.1-7.65 5.1-12.75 0-15.3-10.2-25.5-25.5-25.5H107.1L84.15 0H0zm408 408c-28.05 0-51 22.95-51 51s22.95 51 51 51 51-22.95 51-51-22.95-51-51-51z"/></symbol><symbol viewBox="0 0 47.94 47.94" id="star" xmlns="http://www.w3.org/2000/svg"><path d="M26.285 2.486l5.407 10.956a2.58 2.58 0 0 0 1.944 1.412l12.091 1.757c2.118.308 2.963 2.91 1.431 4.403l-8.749 8.528a2.582 2.582 0 0 0-.742 2.285l2.065 12.042c.362 2.109-1.852 3.717-3.746 2.722l-10.814-5.685a2.585 2.585 0 0 0-2.403 0l-10.814 5.685c-1.894.996-4.108-.613-3.746-2.722l2.065-12.042a2.582 2.582 0 0 0-.742-2.285L.783 21.014c-1.532-1.494-.687-4.096 1.431-4.403l12.091-1.757a2.58 2.58 0 0 0 1.944-1.412l5.407-10.956c.946-1.919 3.682-1.919 4.629 0z"/></symbol><symbol viewBox="0 0 512.001 512" id="tag" xmlns="http://www.w3.org/2000/svg"><path d="M177.8 206.922c3.91-3.91 3.91-10.242 0-14.14-3.898-3.91-10.23-3.91-14.14 0-3.91 3.898-3.91 10.23 0 14.14 3.91 3.898 10.242 3.898 14.14 0zm99 14.141c11.696-11.696 11.696-30.727 0-42.422-11.722-11.723-30.706-11.727-42.429 0-11.726 11.722-11.726 30.695 0 42.422 11.695 11.695 30.73 11.699 42.43 0zm-28.288-28.282a10.006 10.006 0 0 1 14.148 0c3.895 3.899 3.895 10.239 0 14.137-3.902 3.898-10.25 3.902-14.148 0a9.985 9.985 0 0 1 0-14.137zm-14.141 98.985c-11.726 11.726-11.726 30.707 0 42.433 11.723 11.723 30.703 11.727 42.43 0 11.699-11.699 11.699-30.734 0-42.433-11.723-11.72-30.707-11.723-42.43 0zm28.29 28.293c-3.911 3.906-10.243 3.906-14.15 0a10 10 0 0 1 0-14.149c3.91-3.91 10.239-3.906 14.15 0 3.898 3.899 3.898 10.246 0 14.149zm-87.595-47.539c1.082 5.421 6.356 8.925 11.766 7.843l141.418-28.289c5.414-1.082 8.926-6.351 7.844-11.765-1.082-5.418-6.352-8.926-11.766-7.844L182.91 260.754c-5.418 1.082-8.93 6.351-7.844 11.766zm0 0"/><path d="M304.008 56.574a9.996 9.996 0 0 0-7.07 2.926l-104.99 104.988c-3.906 3.907-3.906 10.239 0 14.145s10.238 3.906 14.14 0l97.919-97.918L431.28 207.992l-224.5 224.5L79.504 305.22l70.02-70.02c3.906-3.902 3.906-10.234 0-14.14-3.907-3.903-10.239-3.903-14.145 0l-77.086 77.09c-3.906 3.902-3.906 10.234 0 14.14l141.418 141.418a9.996 9.996 0 0 0 14.14 0l238.645-238.644c3.906-3.907 3.906-10.239 0-14.145L311.078 59.5a9.996 9.996 0 0 0-7.07-2.926zm0 0"/><path d="M494.926 2.934l-42.922 42.918c-25.043-18.91-59.625-19.22-84.457-.782L332.39 8.895l-.102-.102c-11.664-11.664-30.633-11.79-42.437.016L8.793 291.079c-11.723 11.722-11.727 30.706 0 42.433l39.664 39.66c-8.86 25.355-2.469 54.101 16.902 73.465 19.368 19.375 48.114 25.761 73.47 16.91l39.663 39.66c11.723 11.723 30.715 11.719 42.414.016l282.301-281.09c11.727-11.727 11.727-30.7 0-42.422l-.102-.102-36.171-35.148c18.37-24.664 18.3-59.262-.786-84.465l42.918-42.918c3.907-3.906 3.907-10.238 0-14.144a9.996 9.996 0 0 0-14.14 0zM446.145 138a10.027 10.027 0 0 0-2.93 7.145 10.002 10.002 0 0 0 3.031 7.097l42.86 41.653c3.878 3.921 3.835 10.218-.028 14.078l-282.297 281.09c-3.902 3.902-10.25 3.902-14.148 0l-44.352-44.348a9.998 9.998 0 0 0-11.316-1.984c-19.23 9.023-42.324 4.91-57.461-10.239-15.149-15.137-19.262-38.226-10.238-57.457a10 10 0 0 0-1.98-11.32l-44.349-44.348c-3.902-3.902-3.902-10.246.012-14.164l281.063-282.27c3.89-3.886 10.18-3.91 14.093-.042l41.649 42.859c3.734 3.844 10.129 4.219 14.246.105 17.117-17.125 43.922-18.953 63.668-5.668L423 74.855c-11.152-5.312-24.926-3.363-34.145 5.856-11.695 11.7-11.695 30.734 0 42.43 11.723 11.722 30.707 11.726 42.434 0 9.43-9.43 11.082-23.262 5.867-34.157L451.82 74.32c13.184 19.516 11.664 46.344-5.675 63.68zm-29-43.148a10 10 0 0 1 0 14.148c-3.907 3.906-10.239 3.906-14.145 0-3.902-3.902-3.902-10.25-.004-14.148 3.902-3.895 10.25-3.903 14.149 0zm0 0"/></symbol><symbol viewBox="0 0 563.43 563.43" id="user" xmlns="http://www.w3.org/2000/svg"><path d="M280.79 314.559c83.266 0 150.803-67.538 150.803-150.803S364.055 13.415 280.79 13.415 129.987 80.953 129.987 163.756s67.537 150.803 150.803 150.803zm0-261.824c61.061 0 111.021 49.959 111.021 111.021s-49.96 111.02-111.021 111.02-111.021-49.959-111.021-111.021 49.959-111.02 111.021-111.02zM19.891 550.015h523.648c11.102 0 19.891-8.789 19.891-19.891 0-104.082-84.653-189.198-189.198-189.198H189.198C85.116 340.926 0 425.579 0 530.124c0 11.102 8.789 19.891 19.891 19.891zm169.307-169.307h185.034c75.864 0 138.313 56.436 148.028 129.524H41.17c9.714-72.625 72.164-129.524 148.028-129.524z"/></symbol><symbol viewBox="0 0 512 512" id="user-2" xmlns="http://www.w3.org/2000/svg"><path d="M437.02 330.98c-27.883-27.882-61.071-48.523-97.281-61.018C378.521 243.251 404 198.548 404 148 404 66.393 337.607 0 256 0S108 66.393 108 148c0 50.548 25.479 95.251 64.262 121.962-36.21 12.495-69.398 33.136-97.281 61.018C26.629 379.333 0 443.62 0 512h40c0-119.103 96.897-216 216-216s216 96.897 216 216h40c0-68.38-26.629-132.667-74.98-181.02zM256 256c-59.551 0-108-48.448-108-108S196.449 40 256 40s108 48.448 108 108-48.449 108-108 108z"/></symbol><symbol viewBox="0 0 512 512" id="user-3" xmlns="http://www.w3.org/2000/svg"><path d="M437.02 330.98c-27.883-27.882-61.071-48.523-97.281-61.018C378.521 243.251 404 198.548 404 148 404 66.393 337.607 0 256 0S108 66.393 108 148c0 50.548 25.479 95.251 64.262 121.962-36.21 12.495-69.398 33.136-97.281 61.018C26.629 379.333 0 443.62 0 512h40c0-119.103 96.897-216 216-216s216 96.897 216 216h40c0-68.38-26.629-132.667-74.98-181.02zM256 256c-59.551 0-108-48.448-108-108S196.449 40 256 40s108 48.448 108 108-48.449 108-108 108z"/></symbol><symbol viewBox="0 0 30 30" id="vk" xmlns="http://www.w3.org/2000/svg"><g fill-rule="evenodd"><rect width="30" height="30" rx="4"/><path d="M20.19 14.903s2.25-3.174 2.473-4.218c.075-.372-.089-.581-.476-.581h-1.953c-.447 0-.61.194-.745.477 0 0-1.055 2.249-2.34 3.666-.412.459-.622.597-.85.597-.183 0-.268-.153-.268-.567v-3.622c0-.507-.06-.655-.477-.655h-3.13c-.238 0-.387.139-.387.327 0 .478.73.586.73 1.878v2.669c0 .536-.03.744-.283.744-.67 0-2.265-2.31-3.16-4.933-.179-.537-.372-.685-.88-.685h-1.95c-.283 0-.493.193-.493.477 0 .52.612 2.936 3.01 6.17C10.62 18.823 12.738 20 14.646 20c1.162 0 1.446-.193 1.446-.685v-1.67c0-.417.163-.596.402-.596.269 0 .742.087 1.848 1.178C19.653 19.48 19.743 20 20.458 20h2.19c.225 0 .433-.103.433-.476 0-.492-.64-1.371-1.625-2.415-.402-.536-1.058-1.118-1.266-1.387-.3-.312-.209-.49 0-.819"/></g></symbol><symbol viewBox="0 0 470 470" id="warranty" xmlns="http://www.w3.org/2000/svg"><path d="M429.591 418.378L367.368 268.16a7.5 7.5 0 1 0-13.858 5.74l56.251 135.801-51.309-14.867a7.497 7.497 0 0 0-8.656 3.586l-25.769 46.793-60.357-145.716c69.663-13.434 122.447-74.853 122.447-148.378C386.118 67.792 318.327 0 235 0S83.881 67.792 83.881 151.119c0 33.751 11.124 64.951 29.896 90.133L40.409 418.378a7.5 7.5 0 0 0 9.017 10.074l60.533-17.541 30.4 55.207a7.502 7.502 0 0 0 13.499-.748l58.136-140.353a7.5 7.5 0 1 0-13.858-5.74l-52.165 125.936-25.767-46.793a7.5 7.5 0 0 0-8.657-3.586l-51.308 14.867 64.397-155.469c27.598 29.52 66.86 48.005 110.364 48.005 4.491 0 8.933-.209 13.325-.594l67.818 163.727a7.498 7.498 0 0 0 13.498.748l30.401-55.207 60.533 17.541a7.499 7.499 0 0 0 9.016-10.074zM98.881 151.119C98.881 76.063 159.944 15 235 15s136.118 61.063 136.118 136.119S310.056 287.237 235 287.237 98.881 226.175 98.881 151.119z"/><path d="M321.659 122.961a7.5 7.5 0 0 0-5.892-5.079l-50.467-8.469-23.649-45.379a7.5 7.5 0 0 0-13.302 0l-23.65 45.379-50.466 8.469a7.499 7.499 0 0 0-4.111 12.651l35.85 36.515-7.54 50.614a7.5 7.5 0 0 0 10.761 7.819L235 202.669l45.806 22.812a7.496 7.496 0 0 0 7.752-.645 7.5 7.5 0 0 0 3.01-7.173l-7.539-50.614 35.85-36.516a7.5 7.5 0 0 0 1.78-7.572zm-50.951 36.244a7.498 7.498 0 0 0-2.066 6.359l5.97 40.074-36.268-18.061a7.506 7.506 0 0 0-6.687 0l-36.268 18.061 5.97-40.074a7.497 7.497 0 0 0-2.066-6.359l-28.385-28.912 39.957-6.706a7.499 7.499 0 0 0 5.41-3.93L235 83.728l18.725 35.93a7.5 7.5 0 0 0 5.41 3.93l39.958 6.706-28.385 28.911z"/><path d="M348.612 158.684c-4.107-.549-7.877 2.343-8.42 6.45-6.957 52.507-52.18 92.104-105.192 92.104-58.514 0-106.119-47.604-106.119-106.119S176.486 45 235 45c53.013 0 98.235 39.596 105.192 92.104.543 4.107 4.32 7.001 8.42 6.45a7.5 7.5 0 0 0 6.449-8.42C347.121 75.198 295.506 30 235 30c-66.785 0-121.119 54.333-121.119 121.119S168.215 272.237 235 272.237c60.506 0 112.121-45.198 120.062-105.134a7.5 7.5 0 0 0-6.45-8.419z"/></symbol><symbol viewBox="0 0 98 20" id="yandex" xmlns="http://www.w3.org/2000/svg"><defs><path id="bda" d="M.002.101h6.432v14.702H.002z"/></defs><g fill-rule="evenodd"><path d="M59.576 1.205h-1.213l-2.415 9.356a17.145 17.145 0 0 0-.408 2.157c-.03-.314-.072-.64-.125-.974-.058-.362-.147-.76-.264-1.183L52.808 1.23l-.005-.024h-1.19l-.681 15.219-.001.03h.913l.461-10.387c.03-.594.048-1.188.055-1.76.007-.59.01-1.063.01-1.447h.01c.058.526.13 1.014.217 1.452.088.444.19.904.307 1.367l2.168 8.35.006.021h.856l2.196-8.37a20.3 20.3 0 0 0 .318-1.434c.08-.438.155-.91.227-1.407h.01v1.413c0 .481.015 1.062.044 1.727l.46 10.447.001.029h1.067l-.68-15.22-.001-.03zm7.234 9.392v3.104a4.689 4.689 0 0 1-.836 1.522c-.35.416-.781.626-1.28.626-.529 0-.955-.217-1.268-.647-.317-.43-.477-1.045-.477-1.825 0-.968.226-1.68.67-2.118.446-.44 1.13-.662 2.038-.662h1.153zm1.09 4.94a10.052 10.052 0 0 1-.066-1.144v-6.01c0-1.096-.246-1.916-.731-2.436-.486-.522-1.193-.785-2.103-.785-.629 0-1.175.115-1.623.342-.448.227-.786.49-1.007.785l-.009.012.307 1.012.035-.05a2.7 2.7 0 0 1 .997-.875c.403-.21.84-.314 1.3-.314.6 0 1.058.19 1.357.567.3.379.453 1.002.453 1.851v1.347h-1.175c-1.2 0-2.127.308-2.758.915-.63.608-.95 1.515-.95 2.7 0 1.007.237 1.805.707 2.368.471.566 1.09.852 1.841.852.559 0 1.044-.157 1.442-.465.372-.29.69-.68.946-1.163a6.11 6.11 0 0 0 .255 1.388l.006.02h.963l-.015-.04c-.07-.198-.13-.494-.173-.877z"/><g transform="translate(70.225 5.061)"><mask id="bdb"><use xlink:href="#bda"/></mask><path d="M3.054 10.766c-.488 0-.895-.11-1.21-.322-.314-.215-.583-.548-.797-.989V3.217a6.11 6.11 0 0 1 .412-.831c.158-.266.338-.505.532-.705a2.64 2.64 0 0 1 .628-.488c.22-.12.456-.18.697-.18.642 0 1.153.405 1.518 1.206.369.808.556 1.952.556 3.397 0 1.75-.217 3.062-.643 3.9-.424.83-.993 1.25-1.693 1.25m2.61-9.152C5.415 1.138 5.103.763 4.736.5A2.084 2.084 0 0 0 3.491.101c-.618 0-1.14.212-1.554.63-.381.389-.697.83-.94 1.315L.915.348.914.318H.002v14.485h1.045v-4.117c.2.25.461.46.778.628.345.183.73.276 1.141.276 1.043 0 1.891-.508 2.522-1.51.629-1 .946-2.53.946-4.552 0-.798-.066-1.54-.197-2.201-.13-.663-.323-1.239-.572-1.713" mask="url(#bdb)"/></g><path d="M84.298 5.427l.033-.047h-1.037l-3.656 5.117V5.38h-1.044v11.075h1.044v-5.637l3.778 5.624.01.013h1.166l-3.918-5.93zm3.786.559c.27 0 .53.084.772.248.243.167.453.43.625.784.174.356.297.813.37 1.36.071.541.087 1.187.045 1.92h-3.993c.046-1.402.28-2.483.696-3.213.416-.729.916-1.1 1.485-1.1zm2.79 5.109c.087-.972.08-1.838-.022-2.575-.103-.735-.28-1.36-.529-1.856-.25-.498-.57-.877-.952-1.126a2.314 2.314 0 0 0-1.287-.376c-.47 0-.907.13-1.297.387-.389.256-.73.638-1.017 1.137-.285.495-.51 1.104-.671 1.81-.16.706-.242 1.52-.242 2.422 0 1.818.278 3.246.825 4.243.55 1.003 1.425 1.513 2.6 1.513.424 0 .807-.064 1.138-.188a3.04 3.04 0 0 0 .806-.43 2.87 2.87 0 0 0 .642-.618l.01-.013-.357-.878-.03.049a2.126 2.126 0 0 1-.542.583c-.186.156-.42.295-.693.41a2.45 2.45 0 0 1-.952.173c-.802 0-1.405-.4-1.791-1.185-.388-.789-.601-1.95-.632-3.455h4.99l.003-.027zm.882-5.715v.824h2.584v10.25h1.045V6.205h2.563V5.38zM22.75 15.063h-3.062c.286-.47.521-1.026.707-1.666.185-.642.335-1.321.45-2.04.114-.72.192-1.454.235-2.202.043-.747.064-1.456.064-2.126v-.213h1.606v8.247zm1.692-9.614h-4.796v.94c0 .67-.011 1.374-.033 2.115a21.81 21.81 0 0 1-.182 2.243 18.5 18.5 0 0 1-.438 2.244 9.398 9.398 0 0 1-.803 2.072h-.664v3.546h1.52v-2.322h4.9v2.322h1.352v-3.546h-.856V5.449zm6.551 4.486h-2.826c.028-.484.078-.933.15-1.346a4.88 4.88 0 0 1 .3-1.078c.128-.307.285-.546.47-.716a.914.914 0 0 1 .643-.257c.342 0 .62.232.835.695.214.462.35 1.115.407 1.955 0 .099.003.192.01.278.007.085.01.163.01.234v.235zm-1.2-4.764c-.599 0-1.113.174-1.541.524-.428.348-.781.811-1.06 1.387a7.704 7.704 0 0 0-.62 1.988 13.058 13.058 0 0 0-.204 2.34c0 1.68.335 2.984 1.007 3.909.67.926 1.563 1.39 2.676 1.39a4.48 4.48 0 0 0 1.466-.225c.436-.15.832-.325 1.189-.524l-.193-1.218a6.41 6.41 0 0 1-.824.268c-.35.092-.69.139-1.017.139-.871 0-1.51-.33-1.917-.993-.406-.662-.61-1.585-.61-2.767h4.604v-.946c0-1.737-.272-3.049-.814-3.939-.543-.89-1.256-1.333-2.141-1.333zm16.426 9.839a3.57 3.57 0 0 1-.964.139c-.828 0-1.442-.37-1.842-1.112-.4-.74-.599-1.76-.599-3.055 0-.555.043-1.1.129-1.634a7.202 7.202 0 0 1 .364-1.42c.157-.414.356-.748.6-1.006.241-.256.513-.384.813-.384.257 0 .51.079.76.236.25.156.474.349.674.576l.878-1.474a3.921 3.921 0 0 0-1.017-.513 3.971 3.971 0 0 0-1.274-.192c-.528 0-1.02.15-1.477.448-.457.3-.85.72-1.178 1.261-.328.542-.589 1.197-.781 1.966-.193.768-.29 1.624-.29 2.564 0 1.71.34 3.019 1.018 3.93.677.913 1.566 1.368 2.665 1.368a3.94 3.94 0 0 0 1.38-.225 6.305 6.305 0 0 0 1.104-.523l-.171-1.218c-.2.086-.464.175-.792.268M6.486 8.974h-.9a2.93 2.93 0 0 1-1.07-.201 2.473 2.473 0 0 1-.921-.649 3.319 3.319 0 0 1-.653-1.137c-.164-.46-.246-1.022-.246-1.688 0-.68.075-1.265.225-1.754.15-.487.349-.887.599-1.2.25-.31.535-.537.856-.679a2.44 2.44 0 0 1 .996-.213h1.114v7.52zM3.69.342a4.07 4.07 0 0 0-1.445 1.016c-.414.448-.742 1-.985 1.655-.242.655-.364 1.41-.364 2.264 0 1.111.218 2.07.653 2.874.436.805 1.16 1.45 2.174 1.935L0 16.287h1.948l3.424-5.925h1.114v5.925h1.69V0h-2.74a4.52 4.52 0 0 0-1.745.342zM14.662 9.786h-2.436V5.449h-1.714v10.838h1.714V11.24h2.436v5.048h1.69V5.45h-1.69zM40.224 5.45h-1.82l-2.333 4.785-.193.214v-5h-1.713v11.003h1.713V10.79l.193.235 2.633 5.427h1.906l-3.083-6.047z"/></g></symbol></svg>